<?xml version="1.0" standalone="no"?>
<!DOCTYPE svg PUBLIC "-//W3C//DTD SVG 20010904//EN"
 "http://www.w3.org/TR/2001/REC-SVG-20010904/DTD/svg10.dtd">
<svg version="1.0" xmlns="http://www.w3.org/2000/svg"
 width="512.000000pt" height="512.000000pt" viewBox="0 0 512.000000 512.000000"
 preserveAspectRatio="xMidYMid meet">

<g transform="translate(0.000000,512.000000) scale(0.100000,-0.100000)"
fill="#000000" stroke="none">
<path d="M3465 5113 c-16 -2 -624 -87 -1349 -189 -870 -122 -1340 -192 -1380
-205 -88 -30 -182 -81 -255 -140 -127 -104 -244 -285 -292 -455 l-23 -79 -7
-1470 c-5 -808 -6 -1497 -3 -1530 16 -180 107 -354 238 -454 41 -32 457 -265
811 -454 11 -5 -8 20 -42 57 -76 80 -134 196 -158 311 -16 74 -17 199 -10
1555 7 1614 4 1540 66 1702 94 244 319 451 556 512 32 8 650 99 1373 201 1188
169 1325 186 1415 182 55 -2 109 -8 120 -12 19 -7 -454 254 -685 378 -136 72
-272 105 -375 90z"/>
</g>
</svg>
