<?xml version="1.0" standalone="no"?>
<!DOCTYPE svg PUBLIC "-//W3C//DTD SVG 20010904//EN"
 "http://www.w3.org/TR/2001/REC-SVG-20010904/DTD/svg10.dtd">
<svg version="1.0" xmlns="http://www.w3.org/2000/svg"
 width="32.000000pt" height="33.000000pt" viewBox="0 0 32.000000 33.000000"
 preserveAspectRatio="xMidYMid meet">

<g transform="translate(0.000000,33.000000) scale(0.100000,-0.100000)"
fill="#000000" stroke="none">
<path d="M125 314 c-60 -10 -94 -20 -102 -31 -9 -11 -13 -53 -13 -120 0 -90 3
-106 20 -123 11 -11 23 -20 28 -20 4 0 6 50 4 111 -4 141 -3 143 120 160 83
11 88 13 67 25 -13 7 -26 13 -29 13 -3 -1 -45 -8 -95 -15z"/>
</g>
</svg>
